# xmcd
# Track frame offsets:
# 165
# 11872
# 29812
# 48597
#
# Disc length: 913 seconds
# Revision: 0
# Processed by: cddbd v1.4PL0 Copyright (c) Steve Scherf et al.
# Submitted via: VisiTrax 2.9.5.180 - For more info visit www.synapsa.com
#
DISCID=34038f04
DTITLE=Trudi - Money Talks
DYEAR=1900
DGENRE=Irsk
TTITLE0=Money talks
TTITLE1=If those lips could only speak
TTITLE2=Lovely laois
TTITLE3=The blame
EXTD=
EXTT0=
EXTT1=
EXTT2=
EXTT3=
PLAYORDER=
